<?xml version="1.0" encoding="utf-8"?>
<!-- Generator: Adobe Illustrator 16.0.0, SVG Export Plug-In . SVG Version: 6.00 Build 0)  -->
<!DOCTYPE svg PUBLIC "-//W3C//DTD SVG 1.1//EN" "http://www.w3.org/Graphics/SVG/1.1/DTD/svg11.dtd">
<svg version="1.1" id="Layer_1" xmlns="http://www.w3.org/2000/svg" xmlns:xlink="http://www.w3.org/1999/xlink" x="0px" y="0px"
	 width="333.989px" height="381.34px" viewBox="12.091 13.594 333.989 381.34"
	 enable-background="new 12.091 13.594 333.989 381.34" xml:space="preserve">
<g id="roller">
	<path fill="#FFFFFF" stroke="#A2AEAA" stroke-width="0.6148" stroke-miterlimit="10" d="M96.064,345.105
		c0.076-4.989,2.303-9.44,5.787-12.489c-3.67-14.81-14.623-26.789-28.893-31.843c-3.038,4.866-8.478,8.067-14.632,7.976
		c-6.157-0.092-11.494-3.461-14.382-8.422c-14.37,4.603-25.656,16.18-29.813,30.799c3.484,3.156,5.647,7.74,5.569,12.813
		c-0.076,4.854-2.195,9.205-5.521,12.241c4.012,13.895,14.495,25.078,28.019,30.027c2.932-5.289,8.606-8.83,15.073-8.73
		c6.468,0.1,12.032,3.813,14.8,9.188c13.721-4.547,24.57-15.473,28.976-29.306C97.908,354.229,95.991,349.887,96.064,345.105"/>
	<path fill="#FBAC3E" d="M19.7,343.939c0.078-5.073-2.085-9.657-5.569-12.813c-1.063,3.736-1.662,7.676-1.727,11.746
		c-0.069,4.621,0.554,9.092,1.774,13.31C17.505,353.145,19.624,348.795,19.7,343.939"/>
	<path fill="#FBAC3E" d="M101.851,332.616c-3.482,3.049-5.71,7.5-5.787,12.489c-0.073,4.78,1.845,9.124,4.982,12.254
		c1.317-4.137,2.062-8.532,2.131-13.097C103.239,340.247,102.774,336.342,101.851,332.616"/>
	<path fill="#FBAC3E" d="M58.326,308.749c6.155,0.094,11.594-3.108,14.632-7.976c-4.533-1.606-9.397-2.513-14.47-2.591
		c-5.074-0.077-9.966,0.677-14.544,2.145C46.832,305.288,52.169,308.657,58.326,308.749"/>
	<path fill="#FBAC3E" d="M57.271,377.478c-6.467-0.101-12.142,3.44-15.073,8.729c4.654,1.699,9.664,2.666,14.897,2.744
		c5.234,0.084,10.272-0.729,14.976-2.287C69.303,381.29,63.739,377.577,57.271,377.478"/>

		<line fill="none" stroke="#A2AEAA" stroke-width="0.6148" stroke-miterlimit="10" x1="58.326" y1="308.749" x2="57.271" y2="377.478"/>

		<line fill="none" stroke="#A2AEAA" stroke-width="0.6148" stroke-miterlimit="10" x1="96.051" y1="345.823" x2="19.687" y2="344.653"/>
	<path fill="#FBAC3E" d="M83.273,345.708c-0.216,14.123-11.842,25.399-25.966,25.183c-14.125-0.216-25.4-11.843-25.183-25.97
		c0.216-14.125,11.841-25.396,25.966-25.18S83.49,331.581,83.273,345.708"/>
	<circle fill="#FFFFFF" stroke="#A2AEAA" stroke-width="0.6148" stroke-miterlimit="10" cx="57.764" cy="345.315" r="14.596"/>
	<path fill="none" stroke="#A2AEAA" stroke-width="0.6148" stroke-miterlimit="10" d="M77.865,345.622
		c-0.169,11.104-9.309,19.963-20.408,19.793c-11.102-0.168-19.964-9.308-19.794-20.404c0.17-11.105,9.308-19.965,20.409-19.797
		C69.174,325.385,78.036,334.523,77.865,345.622z"/>
	<path fill="#A2AEAA" d="M59.062,334.831c-0.012,0.613-0.517,1.106-1.135,1.096c-0.615-0.008-1.108-0.516-1.099-1.131
		c0.009-0.615,0.519-1.107,1.134-1.101C58.579,333.706,59.071,334.215,59.062,334.831"/>
	<path fill="#A2AEAA" d="M58.723,356.913c-0.01,0.611-0.517,1.107-1.133,1.096c-0.616-0.008-1.108-0.516-1.099-1.131
		c0.009-0.619,0.517-1.108,1.133-1.1C58.241,355.786,58.732,356.295,58.723,356.913"/>
	<path fill="#A2AEAA" d="M70.046,345.922c-0.008,0.611-0.517,1.106-1.134,1.096c-0.615-0.007-1.107-0.518-1.097-1.13
		c0.008-0.619,0.517-1.109,1.132-1.103C69.564,344.797,70.056,345.305,70.046,345.922"/>
	<path fill="#A2AEAA" d="M47.692,345.579c-0.009,0.614-0.515,1.104-1.131,1.096c-0.615-0.008-1.108-0.516-1.098-1.129
		c0.009-0.616,0.517-1.111,1.132-1.102C47.211,344.456,47.703,344.961,47.692,345.579"/>
	<path fill="#A2AEAA" d="M45.389,350.313l4.404-2.003c0,0,0.491,3.25,4.795,4.396l-1.612,5.203
		C52.977,357.907,46.341,355.461,45.389,350.313"/>
	<path fill="none" stroke="#A2AEAA" stroke-width="0.2049" stroke-miterlimit="10" d="M67.111,338.559
		c-0.02,1.288-1.083,2.314-2.374,2.296s-2.323-1.079-2.302-2.371c0.019-1.292,1.083-2.321,2.373-2.305
		C66.101,336.202,67.13,337.263,67.111,338.559z"/>
	<path fill="#A2AEAA" d="M58.391,339.681l-0.174,11.288c0.184-0.018,0.366-0.041,0.543-0.069l0.169-11.133
		C58.754,339.729,58.575,339.704,58.391,339.681"/>
	<path fill="#A2AEAA" d="M55.382,340.179l-0.156,10.202c0.533,0.268,1.116,0.455,1.731,0.541l0.173-11.238
		C56.511,339.754,55.923,339.924,55.382,340.179"/>
	<path fill="#A2AEAA" d="M63.435,345.401c0.035-2.293-1.3-4.287-3.248-5.211l-0.159,10.32
		C62.002,349.651,63.399,347.697,63.435,345.401"/>
	<path fill="#A2AEAA" d="M52.095,345.227c-0.029,1.793,0.78,3.398,2.06,4.459l0.136-8.85
		C52.978,341.857,52.122,343.438,52.095,345.227"/>
	<path fill="#FFFFFF" d="M54.291,340.836l-0.136,8.85c0.328,0.27,0.687,0.503,1.071,0.695l0.156-10.202
		C54.993,340.356,54.625,340.579,54.291,340.836"/>
	<path fill="#FFFFFF" d="M57.851,339.646c-0.243-0.006-0.485,0.011-0.721,0.037l-0.173,11.239c0.237,0.031,0.478,0.061,0.721,0.063
		c0.182,0.003,0.361-0.004,0.539-0.018l0.174-11.287C58.213,339.661,58.032,339.647,57.851,339.646"/>
	<path fill="#FFFFFF" d="M58.93,339.767L58.761,350.9c0.443-0.08,0.867-0.214,1.267-0.39l0.159-10.317
		C59.789,340.004,59.37,339.86,58.93,339.767"/>
	<path fill="#A2AEAA" d="M72.677,319.963c-0.011,0.617-0.518,1.106-1.135,1.1c-0.615-0.012-1.106-0.516-1.096-1.13
		c0.009-0.619,0.515-1.111,1.132-1.103C72.194,318.838,72.685,319.348,72.677,319.963"/>
	<path fill="#A2AEAA" d="M71.893,371.111c-0.009,0.618-0.517,1.109-1.133,1.103c-0.617-0.014-1.108-0.519-1.098-1.135
		c0.008-0.617,0.515-1.107,1.131-1.099C71.41,369.989,71.902,370.499,71.893,371.111"/>
	<path fill="#A2AEAA" d="M86.629,333.139c-0.009,0.619-0.515,1.109-1.133,1.1c-0.616-0.008-1.107-0.516-1.097-1.131
		c0.009-0.619,0.515-1.107,1.133-1.098C86.147,332.018,86.639,332.524,86.629,333.139"/>
	<path fill="#A2AEAA" d="M86.242,358.447c-0.008,0.618-0.516,1.109-1.134,1.103c-0.616-0.01-1.106-0.519-1.098-1.133
		c0.011-0.617,0.517-1.109,1.134-1.1C85.758,357.325,86.252,357.833,86.242,358.447"/>
	<path fill="#A2AEAA" d="M43.629,319.521c-0.009,0.614,0.483,1.12,1.098,1.13c0.617,0.01,1.125-0.48,1.134-1.096
		c0.008-0.619-0.482-1.127-1.099-1.137C44.146,318.411,43.64,318.903,43.629,319.521"/>
	<path fill="#A2AEAA" d="M42.845,370.667c-0.01,0.617,0.482,1.127,1.097,1.133c0.618,0.012,1.123-0.481,1.133-1.098
		c0.009-0.617-0.482-1.123-1.1-1.132C43.361,369.56,42.855,370.051,42.845,370.667"/>
	<path fill="#A2AEAA" d="M29.279,332.263c-0.01,0.616,0.482,1.124,1.099,1.132c0.614,0.007,1.123-0.479,1.132-1.102
		c0.008-0.612-0.482-1.121-1.098-1.131C29.795,331.154,29.287,331.642,29.279,332.263"/>
	<path fill="#A2AEAA" d="M28.891,357.568c-0.01,0.616,0.481,1.126,1.098,1.134c0.616,0.012,1.122-0.482,1.133-1.099
		c0.009-0.615-0.483-1.121-1.098-1.133C29.407,356.463,28.899,356.954,28.891,357.568"/>
	<path fill="none" stroke="#A2AEAA" stroke-width="0.6148" stroke-miterlimit="10" d="M19.7,343.939
		c0.078-5.073-2.085-9.657-5.569-12.813c-1.063,3.736-1.662,7.676-1.727,11.746c-0.069,4.621,0.554,9.092,1.774,13.31
		C17.505,353.145,19.624,348.795,19.7,343.939"/>
	<path fill="none" stroke="#A2AEAA" stroke-width="0.6148" stroke-miterlimit="10" d="M101.851,332.616
		c-3.482,3.049-5.71,7.5-5.787,12.489c-0.073,4.78,1.845,9.124,4.982,12.254c1.317-4.137,2.062-8.532,2.131-13.097
		C103.239,340.247,102.774,336.342,101.851,332.616"/>
	<path fill="none" stroke="#A2AEAA" stroke-width="0.6148" stroke-miterlimit="10" d="M58.326,308.749
		c6.155,0.094,11.594-3.108,14.632-7.976c-4.533-1.606-9.397-2.513-14.47-2.591c-5.074-0.077-9.966,0.677-14.544,2.145
		C46.832,305.288,52.169,308.657,58.326,308.749"/>
	<path fill="none" stroke="#A2AEAA" stroke-width="0.6148" stroke-miterlimit="10" d="M57.271,377.478
		c-6.467-0.101-12.142,3.44-15.073,8.729c4.654,1.699,9.664,2.666,14.897,2.744c5.234,0.084,10.272-0.729,14.976-2.287
		C69.303,381.29,63.739,377.577,57.271,377.478"/>

		<!-- <animateTransform attributeName="transform"
			attributeType="XML"
			type="rotate"
			from="0 57.764 345.315"
			to="360 57.764 345.315"
			dur="1.3s"
			repeatCount="indefinite" /> -->
</g>
<g>
	<polygon fill="#FFFFFF" points="63.155,243.099 62.083,243.195 63.888,263.138 64.964,263.098 	"/>
	<polygon fill="#F2B147" points="64.999,263.486 64.964,263.098 63.888,263.138 63.922,263.526 63.946,263.784 64.952,274.911
		66.023,274.814 	"/>

		<rect x="61.222" y="252.115" transform="matrix(-0.9958 0.0916 -0.0916 -0.9958 147.8035 529.2967)" fill="#A3ABA8" width="1.077" height="31.848"/>
	<path fill="#FFFFFF" stroke="#A2AEAA" stroke-width="0.6148" stroke-miterlimit="10" d="M52.248,270.936
		c-18.242,0.76-32.415,16.168-31.652,34.406c0.042,1.072,0.141,2.123,0.284,3.164l65.497-9.029
		C84.108,282.765,69.438,270.217,52.248,270.936z"/>
	<path fill="#F2B147" d="M49.771,281.575c8.532-1.123,15.711-3.91,19.129-7.072c-0.342-0.178-0.689-0.351-1.039-0.517
		c-3.356,3.054-10.112,5.705-18.126,6.759c-7.442,0.979-14.198,0.346-18.35-1.418c-0.304,0.272-0.604,0.553-0.898,0.838
		C34.783,281.975,41.899,282.606,49.771,281.575"/>
	<path fill="#F2B147" d="M49.699,279.85c7.457-0.982,13.78-3.448,17.116-6.348c-0.284-0.121-0.572-0.233-0.861-0.351
		c-3.348,2.613-9.202,4.806-16.043,5.702c-6.587,0.863-12.607,0.339-16.533-1.184c-0.352,0.271-0.698,0.549-1.038,0.834
		C36.383,280.165,42.728,280.765,49.699,279.85"/>
	<path d="M58.903,288.527c0.152,3.683-2.708,6.793-6.392,6.942c-3.685,0.154-6.794-2.704-6.949-6.389
		c-0.152-3.684,2.708-6.797,6.393-6.949C55.638,281.979,58.748,284.838,58.903,288.527"/>
	<path fill="#FFFFFF" d="M55.735,286.04c0.042,1-0.732,1.844-1.73,1.881c-0.997,0.045-1.84-0.731-1.881-1.729
		c-0.042-0.999,0.733-1.839,1.73-1.881C54.852,284.27,55.695,285.045,55.735,286.04"/>
	<path d="M70.922,291.454c0.077,1.853-1.362,3.414-3.213,3.49c-1.85,0.079-3.416-1.357-3.491-3.212
		c-0.078-1.853,1.362-3.413,3.213-3.491C69.281,288.163,70.845,289.603,70.922,291.454"/>
	<circle fill="none" stroke="#A3ABA8" stroke-width="0.2049" stroke-miterlimit="10" cx="67.553" cy="291.593" r="4.806"/>
	<path fill="none" stroke="#A3ABA8" stroke-width="0.1025" stroke-miterlimit="10" d="M46.389,301.055
		c0.047,1.107-0.814,2.043-1.922,2.091c-1.109,0.045-2.043-0.817-2.091-1.922c-0.045-1.11,0.816-2.046,1.923-2.095
		C45.408,299.083,46.342,299.945,46.389,301.055z"/>

		<rect x="31.191" y="294.907" transform="matrix(-0.9888 0.149 -0.149 -0.9888 115.5018 584.8372)" fill="none" stroke="#A3ABA8" stroke-width="0.4099" stroke-miterlimit="10" width="9.291" height="3.68"/>

		<rect x="23.508" y="302.806" transform="matrix(-0.9908 0.1354 -0.1354 -0.9908 94.0657 602.4276)" fill="#F2B146" width="6.089" height="3.211"/>

		<rect x="23.508" y="302.806" transform="matrix(-0.9908 0.1354 -0.1354 -0.9908 94.0657 602.4276)" fill="none" stroke="#FFFFFF" stroke-width="0.2049" stroke-miterlimit="10" width="6.089" height="3.211"/>

		<rect x="29.911" y="301.936" transform="matrix(-0.9908 0.1355 -0.1355 -0.9908 106.7494 599.8147)" fill="#F2B146" width="6.088" height="3.21"/>

		<rect x="29.911" y="301.936" transform="matrix(-0.9908 0.1355 -0.1355 -0.9908 106.7494 599.8147)" fill="none" stroke="#FFFFFF" stroke-width="0.2049" stroke-miterlimit="10" width="6.088" height="3.21"/>

		<rect x="32.169" y="301.096" transform="matrix(-0.9906 0.1371 -0.1371 -0.9906 107.7213 596.7064)" fill="#FFFFFF" width="2.294" height="1.932"/>

		<rect x="37.8" y="301.002" transform="matrix(-0.9909 0.1349 -0.1349 -0.9909 118.6623 597.2079)" fill="#F2B146" width="2.607" height="3.242"/>

		<rect x="37.8" y="301.002" transform="matrix(-0.9909 0.1349 -0.1349 -0.9909 118.6623 597.2079)" fill="none" stroke="#A3ABA8" stroke-width="0.2049" stroke-miterlimit="10" width="2.607" height="3.242"/>

		<rect x="71.612" y="297.036" transform="matrix(-0.9916 0.1297 -0.1297 -0.9916 183.7945 584.8417)" fill="#F2B146" width="2.485" height="2.739"/>

		<rect x="76.688" y="296.008" transform="matrix(-0.9915 0.1304 -0.1304 -0.9915 197.5943 581.8207)" fill="#F2B146" width="6.109" height="2.746"/>

		<rect x="78.48" y="295.738" transform="matrix(-0.9923 0.124 -0.124 -0.9923 196.1182 580.3185)" fill="#FFFFFF" width="3.04" height="1.049"/>
	<path fill="none" stroke="#A2AEAA" stroke-width="0.6148" stroke-miterlimit="10" d="M52.248,270.936
		c-18.242,0.76-32.415,16.168-31.652,34.406c0.042,1.072,0.141,2.123,0.284,3.164l65.497-9.029
		C84.108,282.765,69.438,270.217,52.248,270.936z"/>
</g>
<radialGradient id="SVGID_1_" cx="108.0767" cy="85.3555" r="259.0078" gradientTransform="matrix(0.928 0.3727 0.3727 -0.928 -98.5375 322.8071)" gradientUnits="userSpaceOnUse">
	<stop  offset="0" style="stop-color:#FFFFFF"/>
	<stop  offset="0.0592" style="stop-color:#F6F6F7;stop-opacity:0.918"/>
	<stop  offset="0.1461" style="stop-color:#E5E6E7;stop-opacity:0.7976"/>
	<stop  offset="0.2502" style="stop-color:#CACCCE;stop-opacity:0.6534"/>
	<stop  offset="0.3675" style="stop-color:#A5A7AA;stop-opacity:0.491"/>
	<stop  offset="0.4941" style="stop-color:#7A7C7F;stop-opacity:0.3155"/>
	<stop  offset="0.586" style="stop-color:#555658;stop-opacity:0.1882"/>
	<stop  offset="1" style="stop-color:#000000;stop-opacity:0"/>
</radialGradient>
<path fill="url(#SVGID_1_)" d="M346.08,330.499L144.258,13.594c0,0-77.627,276.602-77.783,277.267
	c-0.273,1.156,0.371,2.306,1.454,2.706v0.004L346.08,330.499z"/>
</svg>
