<?xml version="1.0" encoding="utf-8"?>
<!-- Generator: Adobe Illustrator 16.0.0, SVG Export Plug-In . SVG Version: 6.00 Build 0)  -->
<!DOCTYPE svg PUBLIC "-//W3C//DTD SVG 1.1//EN" "http://www.w3.org/Graphics/SVG/1.1/DTD/svg11.dtd">
<svg version="1.1" id="Layer_1" xmlns="http://www.w3.org/2000/svg" xmlns:xlink="http://www.w3.org/1999/xlink" x="0px" y="0px"
	 width="430.775px" height="385.496px" viewBox="0 0 430.775 385.496" enable-background="new 0 0 430.775 385.496"
	 xml:space="preserve">

<g>
	<g id="animated">
	<polygon fill="#414042" stroke="#FFFFFF" stroke-width="0.8304" stroke-miterlimit="10" points="318,149.505 85.749,201.813
		51.976,52.806 284.229,0.496 	"/>
	<polygon fill="#414042" stroke="#FFFFFF" stroke-width="0.8023" stroke-miterlimit="10" points="314.355,147.144 88.379,198.038
		55.981,55.091 281.955,4.192 	"/>
	<g>
		<path fill="#FFFFFF" d="M105.565,107.139c0.632,2.786-0.45,4.493-3.244,5.123l-18.322,4.127L73.633,70.653l18.205-4.1
			c2.717-0.612,4.393,0.484,5.029,3.29l2.669,11.777c0.353,1.559,0.138,2.876-0.645,3.954c-0.111,0.148-1.133,1.167-3.066,3.056
			c2.647,0.898,4.056,1.401,4.224,1.507c1.263,0.677,2.075,1.815,2.437,3.413L105.565,107.139z M92.897,84.006l-2.51-11.076
			l-8.589,1.935l3.04,13.414l5.276-1.188L92.897,84.006z M98.319,107.112l-2.954-13.034l-3.875-1.461l-5.394,1.215l3.457,15.255
			L98.319,107.112z"/>
		<path fill="#FFFFFF" d="M130.933,105.817l-19.025,4.286l-10.366-45.735l18.85-4.246l1.371,6.049l-11.989,2.7l3.026,13.355
			l10.319-2.324l1.345,5.933l-10.319,2.324l3.252,14.349l12.166-2.74L130.933,105.817z"/>
		<path fill="#FFFFFF" d="M157.248,95.498c0.632,2.786-0.45,4.493-3.244,5.123l-14.307,3.222c-2.716,0.612-4.39-0.475-5.021-3.261
			l-8.465-37.349c-0.636-2.806,0.405-4.514,3.121-5.126l14.306-3.222c2.794-0.629,4.51,0.458,5.146,3.264l2.424,10.696l-6.83,1.538
			l-2.047-9.031l-8.882,2.001l7.703,33.988l8.882-2.001l-2.179-9.615l6.83-1.538L157.248,95.498z"/>
		<path fill="#FFFFFF" d="M185.772,89.073c0.632,2.786-0.44,4.491-3.215,5.116l-14.893,3.354c-2.717,0.612-4.391-0.475-5.022-3.261
			l-8.464-37.349c-0.636-2.806,0.404-4.514,3.121-5.126l14.893-3.354c2.775-0.625,4.48,0.465,5.117,3.271L185.772,89.073z
			 M178.529,88.923l-7.704-33.988l-9.41,2.12l7.703,33.988L178.529,88.923z"/>
		<path fill="#FFFFFF" d="M219.964,85.765l-6.596,1.485l-5.113-22.561c-0.27-1.188-0.509-2.875-0.716-5.061l-0.63,24.684
			l-3.488,0.786l-11.243-22.01c0.764,2.101,1.275,3.727,1.536,4.876l5.113,22.561l-6.596,1.486l-10.366-45.735l6.479-1.459
			l12.94,23.654c0.14,0.256,0.355,0.933,0.646,2.036c-0.111-0.487-0.209-1.192-0.294-2.115l1.481-26.902l6.479-1.459L219.964,85.765
			z"/>
		<path fill="#FFFFFF" d="M244.472,80.245l-19.026,4.285L215.08,38.794l18.85-4.246l1.371,6.049l-11.99,2.7l3.027,13.355
			l10.319-2.324l1.345,5.933l-10.32,2.324l3.253,14.349l12.166-2.74L244.472,80.245z"/>
		<path fill="#FFFFFF" d="M284.78,71.166l-6.802,1.532l-3.345-8.368l-8.589,1.935l0.589,8.989l-6.772,1.525l-0.026-0.117
			l-1.47-47.679l7.212-1.624L284.78,71.166z M272.335,58.672l-8.018-19.879l1.305,21.391L272.335,58.672z"/>
	</g>
	<g>
		<path fill="#FFFFFF" d="M131.885,171.323l-8.007,1.804l-6.208-27.389c-0.327-1.443-0.616-3.492-0.868-6.145l-0.765,29.967
			l-4.235,0.954l-13.65-26.72c0.927,2.551,1.549,4.524,1.865,5.92l6.208,27.389l-8.008,1.804l-12.584-55.524l7.865-1.771
			l15.711,28.717c0.169,0.311,0.431,1.134,0.784,2.472c-0.134-0.592-0.253-1.447-0.357-2.567l1.8-32.662l7.864-1.771
			L131.885,171.323z"/>
		<path fill="#FFFFFF" d="M161.639,164.621l-23.098,5.203l-12.584-55.524l22.884-5.154l1.664,7.345l-14.556,3.279l3.675,16.213
			l12.527-2.822l1.632,7.202l-12.527,2.822l3.948,17.421l14.77-3.327L161.639,164.621z"/>
		<path fill="#FFFFFF" d="M200.999,155.756l-8.007,1.804l-6.208-27.389c-0.327-1.443-0.616-3.492-0.868-6.145l-0.765,29.967
			l-4.235,0.954l-13.649-26.721c0.927,2.551,1.549,4.524,1.865,5.92l6.208,27.389l-8.008,1.804l-12.584-55.524l7.865-1.771
			l15.711,28.718c0.169,0.311,0.431,1.133,0.784,2.471c-0.134-0.592-0.253-1.447-0.357-2.567l1.8-32.662l7.864-1.771
			L200.999,155.756z"/>
		<path fill="#FFFFFF" d="M233.838,143.027c0.767,3.383-0.547,5.456-3.939,6.22l-22.243,5.01l-12.584-55.524l22.101-4.978
			c3.298-0.743,5.333,0.59,6.105,3.996l3.24,14.297c0.429,1.893,0.168,3.493-0.782,4.8c-0.135,0.179-1.376,1.417-3.724,3.71
			c3.215,1.091,4.924,1.701,5.128,1.828c1.534,0.823,2.52,2.205,2.959,4.144L233.838,143.027z M218.459,114.944l-3.048-13.446
			l-10.428,2.349l3.69,16.284l6.406-1.443L218.459,114.944z M225.04,142.995l-3.586-15.823l-4.704-1.774l-6.548,1.475l4.197,18.52
			L225.04,142.995z"/>
		<path fill="#FFFFFF" d="M264.634,141.423l-23.098,5.203l-12.584-55.524l22.884-5.154l1.665,7.345l-14.557,3.278l3.675,16.213
			l12.527-2.821l1.633,7.202l-12.527,2.821l3.947,17.421l14.771-3.327L264.634,141.423z"/>
		<path fill="#FFFFFF" d="M298.835,133.72l-8.684,1.956l-15.028-23.725l-1.133-5.002l8.186-1.844l-3.989-17.598l-10.499,2.365
			l10.968,48.393l-8.327,1.876l-12.584-55.524l22.101-4.978c3.346-0.753,5.404,0.574,6.176,3.98l4.575,20.187
			c0.531,2.342,0.079,4.035-1.355,5.078c-0.773,0.547-2.537,1.132-5.289,1.751L298.835,133.72z"/>
	</g>
		<!-- <animateTransform attributeName="transform"
			attributeType="XML"
			type="rotate"
			from="0 20 264"
			to="15 20 264"
			dur="1.3s"
			fill="freeze" /> -->
	</g>
	<g>
		<polygon class="animated" fill="#3A9EA2" points="69.318,190.717 61.858,176.563 30.704,193.374 10.308,259.757 25.644,264.441 44.081,204.429
			">
			<!-- <animateTransform attributeName="transform"
				attributeType="XML"
				type="rotate"
				from="0 20 264"
				to="15 20 264"
				dur="1.3s"
				fill="freeze" /> -->
		</polygon>
		<rect x="8.624" y="268.641" fill="#6E6F72" width="19.508" height="13.229"/>
		<path fill="#3A9EA2" d="M56.293,325.769c0-8.358-3.671-15.857-9.485-20.999H9.488C3.67,309.911,0,317.41,0,325.769
			c0,8.384,3.694,15.905,9.543,21.047h37.208C52.599,341.674,56.293,334.152,56.293,325.769z"/>
		<rect x="3.367" y="353.839" fill="#40ADB2" width="87.568" height="31.657"/>
		<rect x="53.299" y="357.569" fill="#F2F4EF" width="33.146" height="13.43"/>
		<rect x="32.716" y="357.729" fill="#C7CB35" width="5.132" height="5.117"/>
		<rect x="41.376" y="357.729" fill="#C7CB35" width="5.133" height="5.117"/>
		<rect x="32.716" y="366.045" fill="#C7CB35" width="5.132" height="5.115"/>
		<rect x="41.376" y="366.045" fill="#C7CB35" width="5.133" height="5.115"/>
		<g>
			<rect x="7.536" y="357.569" fill="#F2F4EF" width="4.812" height="13.591"/>
			<rect x="15.797" y="357.569" fill="#F2F4EF" width="4.811" height="13.591"/>
			<rect x="24.056" y="357.569" fill="#F2F4EF" width="4.812" height="13.591"/>
		</g>
		<rect x="7.536" y="349.076" fill="#595A5C" width="40.897" height="4.763"/>
		<g>
			<path fill="#40ADB2" d="M31.039,264.58c0,6.974-5.67,12.621-12.661,12.621s-12.66-5.647-12.66-12.621
				c0-6.969,5.668-12.619,12.66-12.619S31.039,257.611,31.039,264.58z"/>
			<ellipse fill="#6E6F72" cx="18.378" cy="264.58" rx="6.468" ry="6.449"/>
			<path fill="#EFEFEF" d="M21.543,264.58c0,1.746-1.417,3.155-3.166,3.155c-1.747,0-3.165-1.409-3.165-3.155
				c0-1.741,1.417-3.153,3.165-3.153C20.126,261.427,21.543,262.839,21.543,264.58z"/>
		</g>
		<g class="animated">
			<ellipse fill="#40ADB2" cx="39.164" cy="199.978" rx="12.479" ry="12.438"/>
			<path fill="#6E6F72" d="M45.539,199.978c0,3.511-2.854,6.354-6.376,6.354c-3.519,0-6.374-2.843-6.374-6.354
				c0-3.512,2.854-6.354,6.374-6.354C42.685,193.624,45.539,196.466,45.539,199.978z"/>
			<ellipse fill="#EFEFEF" cx="39.163" cy="199.978" rx="3.118" ry="3.108"/>
			<!-- <animateTransform attributeName="transform"
				attributeType="XML"
				type="rotate"
				from="0 20 264"
				to="15 20 264"
				dur="1.3s"
				fill="freeze" /> -->
		</g>
		<g>
			<polygon fill="#40ADB2" points="21.06,343.784 10.337,332.849 34.821,307.801 45.957,318.399 			"/>
			<g>
				<ellipse fill="#40ADB2" cx="40.389" cy="313.101" rx="7.673" ry="7.649"/>
				<ellipse fill="#6E6F72" cx="40.389" cy="313.101" rx="3.921" ry="3.907"/>
				<ellipse fill="#EFEFEF" cx="40.389" cy="313.101" rx="1.918" ry="1.911"/>
			</g>
			<g>
				<ellipse fill="#40ADB2" cx="15.796" cy="338.223" rx="7.673" ry="7.646"/>
				<path fill="#6E6F72" d="M19.716,338.223c0,2.157-1.755,3.906-3.919,3.906c-2.166,0-3.92-1.749-3.92-3.906
					c0-2.161,1.754-3.909,3.92-3.909C17.961,334.313,19.716,336.062,19.716,338.223z"/>
				<path fill="#EFEFEF" d="M17.714,338.223c0,1.053-0.859,1.91-1.917,1.91c-1.06,0-1.919-0.857-1.919-1.91
					c0-1.059,0.859-1.914,1.919-1.914C16.855,336.309,17.714,337.164,17.714,338.223z"/>
			</g>
		</g>
		<rect x="9.942" y="346.378" fill="#40ADB2" width="36.567" height="2.698"/>
		<rect x="9.942" y="288.395" fill="#6E6F72" width="36.866" height="16.375"/>
		<g>
			<rect x="7.751" y="290.846" fill="#595A5C" width="41.164" height="2.344"/>
			<rect x="7.792" y="294.877" fill="#595A5C" width="41.166" height="2.344"/>
			<rect x="7.835" y="298.908" fill="#595A5C" width="41.165" height="2.345"/>
		</g>
		<rect x="6.468" y="279.76" fill="#3A9EA2" width="43.838" height="8.635"/>
		<g class="animated">
			<g>
				<polygon fill="#6E6F72" points="80.252,188.681 77.68,183.783 93.332,176.624 94.202,178.28 				"/>
				<polygon fill="#6E6F72" points="69.174,167.588 71.743,172.482 86.564,163.738 85.696,162.083 				"/>
				<polygon fill="#6E6F72" points="74.039,175.806 76.61,180.703 90.979,171.095 90.109,169.437 				"/>
			</g>
			<polygon fill="#40ADB2" points="67.87,165.103 81.555,191.165 74.959,194.604 61.27,168.548 			"/>
			<polygon fill="#595A5C" points="69.814,165.829 82.064,189.156 79.464,190.51 67.22,167.186 			"/>
			<polygon fill="#6E6F72" points="61.282,167.35 75.954,195.279 74.177,196.208 59.508,168.275 			"/>
			<polygon fill="#40ADB2" points="56.035,171.829 69.27,197.023 73.458,194.839 60.223,169.643 			"/>
			<!-- <animateTransform attributeName="transform"
				attributeType="XML"
				type="rotate"
				from="0 20 264"
				to="15 20 264"
				dur="1.3s"
				fill="freeze" /> -->
		</g>
	</g>
</g>
</svg>
